<?xml version="1.0" encoding="UTF-8"?>
<svg id="Layer_1" xmlns="http://www.w3.org/2000/svg" version="1.1" viewBox="0 0 1000 1000">
  <!-- Generator: Adobe Illustrator 29.3.0, SVG Export Plug-In . SVG Version: 2.1.0 Build 146)  -->
  <defs>
    <style>
      .st0 {
        fill: #702808;
      }

      .st1 {
        fill: #f5d4a4;
      }

      .st2 {
        fill: #391202;
      }

      .st3 {
        fill: #a44314;
      }

      .st4 {
        fill: #ffae63;
      }

      .st5 {
        fill: #c01317;
      }

      .st6 {
        fill: #ffd08c;
      }

      .st7 {
        fill: #fef7ce;
      }
    </style>
  </defs>
  <path class="st2" d="M729.73,497.98c26.28.88,48.42,35.19,33.79,75.53l-11.73,23.98c1.39,5.61,2.37,11.54,2.74,17.88,1.69,29.48-18.37,70.29-38.37,101.92l7.57,37.93c-.01.84-8.97,45.15-40,83.72,20.22,10.49,24.76,31.45,66.51,29.99,7.96-.27,13.13,8.22,9.22,15.16-16.45,29.2-37.81,49.76-78.42,51.29-25.54.95-50.64-9.45-67.31-30.5-21.96,45.08-76.16,47.92-120.35,30.45-7.14-2.82-8.92-12.02-3.18-17.12,17.68-15.72,25.03-36.5,37.11-52.82-57.89-19.74-115.13-50.87-140.75-110.75l-2.4-5.63,21.72-49.05c-2.87-4.4-5.4-8.98-7.53-13.71-19.4,6.67-38.79-6.17-46.55-26.25-7.53-19.51-19.12-35.39-23.74-52.01-7.78-27.91.36-51.59,15.01-64.18l-5.12-22.14c-176.03,37.72-238.07-149.41-114.76-268.67-6.62-42.84,6.95-85.95,32.57-122.32,53.37-75.83,156.91-120.05,238.99-76.79,148.74-61.64,315.37,17.49,304.55,146.39,82.65,70,35.02,229.27-72.85,247.23,3.65,21.36,4.65,27.32,3.26,50.48h0Z"/>
  <path class="st0" d="M409.91,501.12c-15.32,10.33-27.46,21.63-34.97,33.56,6.56,1.18,13.22,4.15,19.58,9.21l-.56-8.09,17.71-12.09c-.28-5.73-.82-14.04-1.76-22.59Z"/>
  <path class="st1" d="M362.97,504.74c66.1-72.2,250.97-113.91,331.53-77.09l-12.34-72.12c-24.76-13.31-51.93-22.47-79.75-27.63-53.86,42.13-124.47,52.61-192.27,35.23l-3.94,2.51.02.03c-28.41,18.18-65.65,42.02-59.08,70.47l15.82,68.59h0Z"/>
  <path class="st7" d="M489.12,434.54c74.26-23.01,157.93-28.57,205.39-6.89l-9.18-53.64c-123.7-15.67-175.37,20.66-196.21,60.52h0Z"/>
  <path class="st4" d="M645.41,726.93c9.74.74,22.74-2.57,38.52-11.79,18.17-26.52,44-72.02,42.49-98.23-1.87-32.53-28.32-55.56-26.24-98.13.81-16.42,3.09-34.08,1.09-51.03-17.13-29.49-91.1-27.54-131.03-22.2-45.68,6.1-94.66,20.16-134,40.18,3.38,21.18,3.85,45.21,4.06,52.51l-17.13,11.7,3.31,48.09c.81,11.55-15.45,15.17-19.63,4.37-13.22-34.19-42.84-51.54-51.33-28.32-9.15,25,10.98,45.91,22.51,75.77,2.78,7.18,15.24,15.77,23.19,6.58,4.83-5.59,15.08-3.4,16.71,4.11,16.76,76.99,165.39,107.76,141.88,40,32.51.82,38.42.45,71.34-8.14-2.66,14.71-4.13,33.12,14.25,34.53Z"/>
  <path class="st6" d="M645.41,726.93c11.43.87,29.44-4.32,38.52-11.79,18.17-26.52,44-72.02,42.49-98.23-1.87-32.53-28.32-55.56-26.24-98.13.81-16.42,3.09-34.08,1.09-51.03-17.13-29.49-91.1-27.54-131.03-22.2-32.02,4.28-65.65,12.47-96.46,23.87-25.28,51.62-80.35,196.42,53.87,268.54,24.7.17,41.24-11.3,32.17-37.43,32.51.82,38.42.45,71.34-8.14-2.66,14.71-4.13,33.12,14.25,34.53h0Z"/>
  <path class="st0" d="M674.28,750.5c-28.65,9.71-61.06,4.66-70.62-24.36l-13.12,1.38c-3.07,16.73-16.85,40.12-70.48,37.85,14.46,25.07,68.76,39.72,93.02,72.44,36.43-23.12,52.07-49.89,61.2-87.31h0Z"/>
  <path class="st3" d="M674.28,750.5c-28.65,9.71-61.06,4.66-70.62-24.36l-13.12,1.38c-1.24,6.81-4.27,14.71-11.02,21.54-3.07,23.5.58,64.35,62.76,65.04,16.62-17.76,25.8-38.22,32-63.6h0Z"/>
  <path class="st5" d="M568.31,848.6l1.82-12.23c-54.43-19.35-115.93-49.47-149.56-99.96l-5.61,12.65c28.03,57.72,95.34,83.31,153.34,99.54h0Z"/>
  <path class="st5" d="M557.15,874.69c-10.41,9.1-21.07,30.6-27.73,42.16,25.41,4.39,46.21-3.85,57.77-23.04-7.03,1.28-13.31,2.43-19.5,5.5-8.04,3.97-16.38-5.08-11.75-12.76,2.57-4.29,5.12-7.85,6.94-10.25-1.9-.53-3.81-1.06-5.72-1.6Z"/>
  <path class="st5" d="M656.57,865.65c5.13,2.55,10.92,5.84,16.97,10.03,8.8,6.06,1.49,20.6-8.72,16.41-8.56-3.52-17.99-4.61-24.37-5.32-.92.99-1.88,1.9-2.87,2.77,19.55,22.4,53.57,22.91,76.62,5.34-19.38-9.38-34.65-29.94-52.8-33.09-1.58,1.31-3.18,2.6-4.84,3.86h0Z"/>
  <path class="st4" d="M737.93,560.98c5.63-17.57-1.69-35.59-9.63-34.56.64,12.28,4.79,23.32,9.63,34.56Z"/>
  <path class="st1" d="M663.1,251.59c-9.93,20.33-21.94,37.95-35.57,52.95,22.84,5.71,43.49,13.7,64.58,24.55,6.17-6.86,14.67-17.3,20.7-28.61,5.75-10.78,22.28-3.92,18.7,7.76-5.71,18.66-15.94,34.21-21.67,41.99l11.9,69.54c78.83-13.2,118.22-126.58,70.93-186.1-4.94,10.7-21.32,5.64-19.24-6.05,6.11-34.51-2.53-68.75-16.31-92.39-36.98-63.47-138.98-93.04-233.9-61.97,7.68,6.57,15.06,14.09,22.04,22.66,8.15,9.97-6.26,23.2-15.35,13.83-24.71-25.44-60.59-39.83-88.3-43.54-70.5-9.44-147.23,41.43-177.91,106.62-15.25,32.38-21.58,77.52-8.22,113.28,4.59,12.27-13.64,19.55-19.24,8.08-1.57-3.19-2.99-6.4-4.3-9.63-87.57,98.56-43.59,240.08,99.72,209.71l-10.27-44.51c-12.19-5.32-35.11-18.34-48.9-45.12-5.58-10.8,9.31-20.5,16.95-11.04,8.62,10.67,20.13,18.55,29.69,23.83,5.51-27.99,31.46-48.75,56.69-65.6-15.71-6.35-31.08-14.22-45.83-23.57-11.05-7-1.05-24.14,10.47-17.59,103.35,58.65,244.73,35.5,304.69-68.65,6.47-11.23,23.64-2.1,17.96,9.54h0Z"/>
  <path class="st7" d="M663.1,251.59c-.93,1.89-1.87,3.76-2.82,5.61,5.11,18.27,17.95,49.76,46.3,53.55,2.23-3.28,4.35-6.73,6.24-10.27,5.75-10.78,22.28-3.92,18.7,7.76-3.3,10.8-8.13,20.57-12.71,28.38,6.19,13.42,23.81,40.53,66,43.41,32.26-41.89,39.69-106.31,7.87-146.35-4.94,10.7-21.32,5.64-19.24-6.05,6.11-34.51-2.53-68.75-16.31-92.39-36.98-63.47-138.98-93.04-233.9-61.97,7.68,6.57,15.06,14.09,22.04,22.66,8.15,9.97-6.26,23.2-15.35,13.83-24.71-25.44-60.59-39.83-88.3-43.54-57.42-7.68-118.96,24.64-156.41,72.11,24.05,87.87,96.96,193.81,312.85,158.31,18.52-14.67,34.58-32.86,47.09-54.59,6.47-11.23,23.64-2.1,17.96,9.54Z"/>
  <path class="st2" d="M619.27,682.29c-14.99,11.7-36.98,12.12-54.44,3.9-37.62,17.16-87.42,5.42-108.25-43.97-5.13-12.18,3.91-24.94,15.67-21.8,36.41,9.75,77.68-64.15,118.42-24,6.65-.75,24.35-3.72,22.03-10.37-3.43-9.82-26.04-20.48-32.71-60.9-1.71-10.36,13.79-16.23,18.04-5.51,4.5,11.39,13,27.29,27.74,37.34,9.91,6.74,19.93,18.27,15.44,31.86,24.25,7,41.06,37.06,62.76,23.4,8.67-5.45,18.37,6.82,15.65,14.18-18.55,50.09-62.82,71.87-100.35,55.88h0Z"/>
  <path class="st2" d="M539.83,566.97c-21.54-14.15-51.67-10.02-75.82,6.9-10.86,7.61-19.69-10.19-11.67-17.15,32.52-28.21,65.23-41.11,100.03-7.5,7.22,6.96-1.76,24.84-12.54,17.76h0Z"/>
  <path class="st2" d="M527.63,503.62c-16.31-2-45.18-3.44-71.68,6.1-11.2,4.03-16.45-11.78-7.27-17.6,22.38-14.2,50.29-21.27,76.62-20.64,14.7.35,19.64,34.28,2.33,32.14h0Z"/>
  <path class="st2" d="M637.05,551.56c14.92-12.17,35-8.62,51.65,6.2,11.4,10.14,16.24-8.7,8.56-17.58-22.33-25.77-44.79-37.16-68.57-7.96-8.35,10.24-2.26,27.95,8.35,19.33Z"/>
  <path class="st2" d="M639.27,493.77c10.65-2.83,29.67-5.9,48.04,1.18,7.76,2.99,9.9-11.74,3.32-16.49-16.02-11.56-35.26-17.25-52.52-14.13-14.48,2.61-15.81,33.95,1.15,29.44Z"/>
  <path class="st3" d="M620.38,617.34c-12.37,5.99-25.02,7.16-41.89,8.12l-4.55-5.64c-16.09-19.97-49.06,21.45-80.08,29.58,24.84,27.1,75.82,17.23,91.11-12.3,3.34-6.45,18.29-7.57,22.38-1.28,18.61,28.63,49.4,31.31,71.23,6.33-22.8-5.45-37.78-32.88-58.2-24.8Z"/>
  <path class="st2" d="M382.54,586.73c18.47,6.2,20.36,25.75,12.94,43.95-.9,2.21-2.7,3.69-5.04,4.15l-.2.04c-2.33.46-4.53-.21-6.21-1.89-1.68-1.68-2.35-3.9-1.89-6.22,2.06-10.31-.02-21.2-6.86-27.36-2.26-2.04-2.92-5.17-1.68-7.95l.46-1.01c1.46-3.25,5.11-4.85,8.49-3.72Z"/>
</svg>