<?xml version="1.0" encoding="UTF-8"?>
<svg id="Layer_1" data-name="Layer 1" xmlns="http://www.w3.org/2000/svg" viewBox="0 0 187.63 187.63">
  <path d="M183.19,38.42c-3.73-4.55-9.24-7.15-15.12-7.15H35.1l-2-14.41C31.77,7.25,23.45,0,13.74,0H3.91C1.75,0,0,1.75,0,3.91s1.75,3.91,3.91,3.91h9.84c5.82,0,10.81,4.35,11.61,10.12l13.92,100.26c2.41,17.29,17.39,30.34,34.84,30.34h78.32c2.16,0,3.91-1.75,3.91-3.91s-1.75-3.91-3.91-3.91h-78.32c-13.52,0-25.13-10.08-27.07-23.45h98.82c16.71,0,31.22-11.89,34.49-28.28l6.87-34.34c1.15-5.77-.33-11.68-4.06-16.22h0ZM179.58,53.11l-6.87,34.34c-2.55,12.74-13.84,21.99-26.83,21.99H45.96l-9.77-70.36h131.89c3.53,0,6.83,1.56,9.07,4.29s3.12,6.28,2.44,9.73ZM54.72,156.36c-8.62,0-15.64,7.01-15.64,15.64s7.01,15.64,15.64,15.64,15.64-7.01,15.64-15.64-7.01-15.64-15.64-15.64ZM54.72,179.81c-4.32,0-7.82-3.51-7.82-7.82s3.5-7.82,7.82-7.82,7.82,3.51,7.82,7.82-3.5,7.82-7.82,7.82ZM132.9,156.36c-8.62,0-15.64,7.01-15.64,15.64s7.01,15.64,15.64,15.64,15.64-7.01,15.64-15.64-7.01-15.64-15.64-15.64ZM132.9,179.81c-4.32,0-7.82-3.51-7.82-7.82s3.5-7.82,7.82-7.82,7.82,3.51,7.82,7.82-3.5,7.82-7.82,7.82Z"/>
</svg>