<?xml version="1.0" encoding="UTF-8"?>
<svg id="Layer_1" data-name="Layer 1" xmlns="http://www.w3.org/2000/svg" viewBox="0 0 190.03 176.03">
  <defs>
    <style>
      .cls-1 {
        fill: #a8281d;
      }
    </style>
  </defs>
  <path d="M124.69,146.71c-8.1,0-14.68,6.57-14.68,14.65s6.57,14.68,14.68,14.68,14.68-6.57,14.68-14.68-6.6-14.65-14.68-14.65ZM124.69,168.69c-4.07,0-7.34-3.27-7.34-7.34s3.27-7.31,7.34-7.31,7.34,3.27,7.34,7.31-3.3,7.34-7.34,7.34ZM51.34,146.71c-8.1,0-14.68,6.57-14.68,14.65s6.57,14.68,14.68,14.68,14.68-6.57,14.68-14.68-6.6-14.65-14.68-14.65ZM51.34,168.69c-4.04,0-7.34-3.27-7.34-7.34s3.3-7.31,7.34-7.31,7.34,3.27,7.34,7.31-3.3,7.34-7.34,7.34ZM166.66,61.56h-.53l-4.1,20.48c-2.39,11.97-12.97,20.63-25.17,20.63H43.12l-9.17-65.99h83.4c-.56-2.36-.85-4.8-.85-7.34H32.92l-1.86-13.53C29.8,6.81,21.99,0,12.88,0H3.65C1.65,0,0,1.65,0,3.68s1.65,3.65,3.65,3.65h9.25c5.45,0,10.14,4.07,10.87,9.49l13.06,94.07c2.27,16.21,16.33,28.47,32.71,28.47h73.47c2.03,0,3.65-1.65,3.65-3.68s-1.62-3.65-3.65-3.65h-73.47c-12.7,0-23.58-9.46-25.4-22.01h92.72c15.68,0,29.29-11.14,32.36-26.52l4.57-22.72c-2.3.53-4.69.8-7.13.8Z"/>
  <path class="cls-1" d="M190.03,29.35c0,9.67-5.89,17.98-14.29,21.51-2.42,1.03-5.07,1.68-7.81,1.83-.41.03-.85.03-1.27.03h-17.95c-10.34,0-19.1-6.72-22.16-16.03-.8-2.3-1.21-4.77-1.21-7.34,0-12.91,10.46-23.4,23.37-23.4h17.95c12.88,0,23.37,10.49,23.37,23.4Z"/>
</svg>