<?xml version="1.0" encoding="UTF-8"?>
<svg id="Layer_1" xmlns="http://www.w3.org/2000/svg" version="1.1" viewBox="0 0 187.6 187.6">
  <!-- Generator: Adobe Illustrator 29.3.0, SVG Export Plug-In . SVG Version: 2.1.0 Build 146)  -->
  <defs>
    <style>
      .st0 {
        stroke: #000;
        stroke-miterlimit: 10;
        stroke-width: 6px;
      }
    </style>
  </defs>
  <path class="st0" d="M178.3,41.5c-3.5-4.3-8.7-6.8-14.3-6.8H38.3l-1.9-13.6c-1.3-9.1-9.1-15.9-18.3-15.9h-9.3c-2,0-3.7,1.7-3.7,3.7s1.7,3.7,3.7,3.7h9.3c5.5,0,10.2,4.1,11,9.6l13.2,94.8c2.3,16.3,16.4,28.7,32.9,28.7h74c2,0,3.7-1.7,3.7-3.7s-1.7-3.7-3.7-3.7h-74c-12.8,0-23.8-9.5-25.6-22.2h93.4c15.8,0,29.5-11.2,32.6-26.7l6.5-32.5c1.1-5.5-.3-11-3.8-15.3h0ZM174.9,55.3l-6.5,32.5c-2.4,12-13.1,20.8-25.4,20.8H48.6l-9.2-66.5h124.7c3.3,0,6.5,1.5,8.6,4.1s2.9,5.9,2.3,9.2h0ZM66.7,157.5c-5.6,0-10.2,4.6-10.2,10.2s4.6,10.2,10.2,10.2,10.2-4.6,10.2-10.2-4.6-10.2-10.2-10.2ZM143.4,156.5c-5.6,0-10.2,4.6-10.2,10.2s4.6,10.2,10.2,10.2,10.2-4.6,10.2-10.2-4.6-10.2-10.2-10.2Z"/>
</svg>