<?xml version="1.0" encoding="UTF-8"?>
<svg id="Layer_1" xmlns="http://www.w3.org/2000/svg" version="1.1" viewBox="0 0 187.6 187.6">
  <!-- Generator: Adobe Illustrator 29.3.0, SVG Export Plug-In . SVG Version: 2.1.0 Build 146)  -->
  <path d="M182.4,56.3l-6.5,32.6c-3.5,17.3-18.8,29.8-36.3,29.8H54.7c3.1,8.8,11.3,14.8,21,14.8h70c4.1,0,7.4,3.3,7.4,7.4s-3.3,7.4-7.4,7.4h-70c-18.8,0-34.6-14.1-36.9-32.8L28.6,28.8c-.4-3.7-3.6-6.5-7.3-6.5h-9c-4.1,0-7.4-3.3-7.4-7.4s3.3-7.4,7.4-7.4h9c11.3,0,20.8,8.5,22.1,19.7l.3,2.6h27.9c4.1,0,7.4,3.3,7.4,7.4s-3.3,7.4-7.4,7.4h-26.1l7,59.3h87.1c10.5,0,19.7-7.5,21.8-17.9l6.5-32.6c.4-2.2-.1-4.4-1.6-6.2-1.4-1.7-3.5-2.7-5.7-2.7h-29.7c-4.1,0-7.4-3.3-7.4-7.4s3.3-7.4,7.4-7.4h29.7c6.7,0,13,3,17.2,8.2s5.9,11.9,4.6,18.5ZM56.7,155.8c-8.2,0-14.8,6.7-14.8,14.8s6.7,14.8,14.8,14.8,14.8-6.7,14.8-14.8-6.7-14.8-14.8-14.8ZM130.9,155.8c-8.2,0-14.8,6.7-14.8,14.8s6.7,14.8,14.8,14.8,14.8-6.7,14.8-14.8-6.7-14.8-14.8-14.8Z"/>
  <rect x="92.7" y="10.1" width="15.7" height="75.9" rx="3.7" ry="3.7"/>
  <path d="M125.6,71.7l-16.8,16.8-3.2,3.2s0,0,0,0c-.5.5-2.2,1.9-4.8,2-2.5,0-4.3-1.3-5-2-.2-.2-.3-.3-.3-.3l-3-3-16.8-16.8c-1.5-1.5-1.5-3.9,0-5.4l2.8-2.8c1.5-1.5,3.9-1.5,5.4,0l14.1,14.1c1.5,1.5,3.9,1.5,5.4,0l14.1-14.1c1.5-1.5,3.9-1.5,5.4,0l2.8,2.8c1.5,1.5,1.5,3.9,0,5.4Z"/>
</svg>