<?xml version="1.0" encoding="UTF-8"?>
<svg id="Layer_1" xmlns="http://www.w3.org/2000/svg" version="1.1" viewBox="0 0 189.8 189.8">
  <!-- Generator: Adobe Illustrator 29.3.0, SVG Export Plug-In . SVG Version: 2.1.0 Build 146)  -->
  <defs>
    <style>
      .st0 {
        stroke: #000;
        stroke-miterlimit: 10;
        stroke-width: 6px;
      }
    </style>
  </defs>
  <path class="st0" d="M184.1,94.9h0c0,5-2,9.7-5.5,13.2l-30.8,30.3c-.7.7-1.7,1.1-2.6,1.1s-1.9-.4-2.6-1.1c-1.4-1.5-1.4-3.8,0-5.3l30.8-30.3c1.2-1.2,2.1-2.6,2.6-4.2H54.1c-2,0-3.7-1.7-3.7-3.7s1.7-3.7,3.7-3.7h121.9c-.6-1.6-1.4-3-2.7-4.2l-30.8-30.3c-1.5-1.4-1.5-3.8,0-5.3,1.4-1.5,3.8-1.5,5.3,0l30.8,30.3c3.6,3.5,5.6,8.2,5.6,13.2h0ZM91.2,117.2c-2,0-3.7,1.7-3.7,3.7v29.7c0,14.3-11.7,26-26,26h-22.3c-14.3,0-26-11.7-26-26V39.2c0-14.3,11.7-26,26-26h22.3c14.3,0,26,11.7,26,26v29.7c0,2,1.7,3.7,3.7,3.7s3.7-1.7,3.7-3.7v-29.7c0-18.4-15-33.4-33.4-33.4h-22.3C20.8,5.8,5.8,20.8,5.8,39.2v111.4c0,18.4,15,33.4,33.4,33.4h22.3c18.4,0,33.4-15,33.4-33.4v-29.7c0-2-1.7-3.7-3.7-3.7Z"/>
</svg>