<?xml version="1.0" encoding="UTF-8"?>
<svg id="Layer_1" data-name="Layer 1" xmlns="http://www.w3.org/2000/svg" viewBox="0 0 127.25 190.88">
  <defs>
    <style>
      .cls-1 {
        fill: #5a1f0e;
      }
    </style>
  </defs>
  <path class="cls-1" d="M63.63,95.44c26.32,0,47.72-21.4,47.72-47.72S89.94,0,63.63,0,15.91,21.4,15.91,47.72s21.4,47.72,47.72,47.72ZM63.63,7.95c21.93,0,39.77,17.84,39.77,39.77s-17.84,39.77-39.77,39.77-39.77-17.84-39.77-39.77S41.7,7.95,63.63,7.95Z"/>
  <path class="cls-1" d="M63.63,111.35C28.54,111.35,0,139.89,0,174.97v11.93c0,2.2,1.78,3.98,3.98,3.98s3.98-1.78,3.98-3.98v-11.93c0-30.7,24.97-55.67,55.67-55.67s55.67,24.97,55.67,55.67v11.93c0,2.2,1.78,3.98,3.98,3.98s3.98-1.78,3.98-3.98v-11.93c0-35.08-28.54-63.63-63.63-63.63Z"/>
</svg>