<?xml version="1.0" encoding="UTF-8"?>
<svg id="Layer_1" xmlns="http://www.w3.org/2000/svg" version="1.1" viewBox="0 0 187.6 187.6">
  <!-- Generator: Adobe Illustrator 29.3.0, SVG Export Plug-In . SVG Version: 2.1.0 Build 146)  -->
  <g id="_01_align_center">
    <path d="M168.4,34.5h-37.2v-14.9c0-8.2-6.7-14.9-14.9-14.9h-44.6c-8.2,0-14.9,6.7-14.9,14.9v14.9H19.6v14.9h14.9v111.5c0,12.3,10,22.3,22.3,22.3h74.4c12.3,0,22.3-10,22.3-22.3V49.4h14.9v-14.9ZM71.7,19.6h44.6v14.9h-44.6v-14.9ZM138.6,160.9c0,4.1-3.3,7.4-7.4,7.4H56.8c-4.1,0-7.4-3.3-7.4-7.4V49.4h89.2v111.5Z"/>
    <rect x="71.7" y="79.1" width="14.9" height="59.5"/>
    <rect x="101.4" y="79.1" width="14.9" height="59.5"/>
  </g>
</svg>