<?xml version="1.0" encoding="UTF-8"?>
<svg id="Layer_1" xmlns="http://www.w3.org/2000/svg" version="1.1" viewBox="0 0 153.2 127.86">
  <!-- Generator: Adobe Illustrator 29.3.0, SVG Export Plug-In . SVG Version: 2.1.0 Build 146)  -->
  <defs>
    <style>
      .st0 {
        fill: #8a898e;
      }
    </style>
  </defs>
  <g>
    <path class="st0" d="M139.61,61.24c.13,1.42.13,4,0,5.42-.74,8-7.5,17.01-12.67,22.91-28.35,32.33-75,31.08-102.27-1.86-13.02-15.73-15.56-26.8-2.81-43.94,28.82-38.74,80.66-38.73,109.48,0,3.74,5.03,7.68,11.04,8.27,17.46ZM74.58,25.35c-18.88.77-34.46,10.88-45.19,25.96-7.13,10.01-7.13,15.26,0,25.28,24.68,34.67,69.53,34.74,94.32.14,8.56-11.95,6.31-17.85-2.32-28.66-10.74-13.45-25.89-22.34-43.43-22.8l-3.38.08Z"/>
    <path class="st0" d="M75.32,37.66c18.41-.96,32.07,17.31,26.15,34.79-6.75,19.92-33.51,24.1-45.99,7.09-12.4-16.9-.97-40.79,19.84-41.88ZM74.82,48.26c-20.01,2.04-17.63,33.04,3.12,31.45,20.51-1.57,18.23-33.63-3.12-31.45Z"/>
  </g>
  <path class="st0" d="M26.98,122.03c31.52-31.52,63.04-63.04,94.56-94.56,4.39-4.39,8.78-8.78,13.16-13.16,5.47-5.47-3.02-13.96-8.49-8.49-31.52,31.52-63.04,63.04-94.56,94.56-4.39,4.39-8.78,8.78-13.16,13.16-5.47,5.47,3.02,13.96,8.49,8.49h0Z"/>
</svg>