<?xml version="1.0" encoding="UTF-8"?>
<svg id="Layer_1" xmlns="http://www.w3.org/2000/svg" version="1.1" viewBox="0 0 175.8 191.3">
  <!-- Generator: Adobe Illustrator 29.3.0, SVG Export Plug-In . SVG Version: 2.1.0 Build 146)  -->
  <defs>
    <style>
      .st0 {
        stroke: #000;
        stroke-miterlimit: 10;
        stroke-width: 6px;
      }
    </style>
  </defs>
  <path class="st0" d="M335.2-34.7l-14.2-51.2c-8.4-30-36-51.1-67.2-51.1s-61,22.5-68.1,54.5l-13.2,49.7c-2.5,11.1.2,22.6,7.3,31.5s17.8,14,29.2,14h8.4c3.5,17.3,18.6,29.9,36.5,29.9s33-12.7,36.5-29.9h8.7c11.8,0,22.7-5.4,29.8-14.8,7.1-9.4,9.4-21.3,6.3-32.7h0ZM253.9,35.2c-13.8,0-25.6-9.4-28.9-22.5h57.8c-3.4,13-15.1,22.5-28.9,22.5h0ZM323-6.6c-5.7,7.5-14.4,11.8-23.8,11.8h-90.2c-9.1,0-17.6-4.1-23.3-11.2-5.7-7.1-7.8-16.3-5.9-25.1l13.2-49.7c6.4-28.7,31.4-48.8,60.8-48.8s52.5,18.8,60,45.6l14.2,51.2c2.5,9.1.7,18.6-5,26.1h0Z"/>
  <path d="M87.9,139.1c-5.4,0-10.5-2.1-14.4-5.9L2.1,61.7l9.6-9.6,71.5,71.5c2.6,2.6,7,2.6,9.6,0l71.5-71.5,9.6,9.6-71.5,71.5c-3.8,3.8-8.9,5.9-14.4,5.9h0Z"/>
</svg>