<?xml version="1.0" encoding="UTF-8"?>
<svg id="Layer_1" data-name="Layer 1" xmlns="http://www.w3.org/2000/svg" viewBox="0 0 188.25 188.15">
  <defs>
    <style>
      .cls-1 {
        fill: #391202;
      }
    </style>
  </defs>
  <path class="cls-1" d="M186.12,174.92c2.97,3.16,2.82,8.13-.34,11.09-3.16,2.97-8.13,2.82-11.09-.34l-43.01-45.8c-8.13.26-45.55,1.37-33.82-16.31,2-2.03,4.96-2.8,7.69-1.99,8.77,2.72,18.02,3.5,27.12,2.27,3.19-.41,6.38.76,8.55,3.14l44.9,47.94ZM117.65,109.71c10.4.01,20.38-4.11,27.73-11.47l40.56-40.57c3.07-3.06,3.07-8.03,0-11.1-3.06-3.07-8.03-3.07-11.1,0l-40.56,40.57c-7.06,7-17.75,8.8-26.71,4.52l54.83-54.83c3.12-3.01,3.2-7.97.19-11.09-3.01-3.12-7.97-3.2-11.09-.19-.07.06-.13.13-.19.19l-54.85,54.83c-4.29-8.97-2.48-19.66,4.52-26.71l40.58-40.56c3.01-3.12,2.92-8.08-.19-11.09-3.04-2.94-7.86-2.94-10.9,0l-40.57,40.56c-13.15,13.19-15.23,33.81-4.98,49.36L2.3,174.76c-3.01,3.12-2.92,8.08.19,11.09,3.04,2.94,7.86,2.94,10.9,0l82.64-82.64c6.41,4.24,13.93,6.5,21.62,6.5ZM42.76,101.59c6.5,6.13,12.5-2.01,16.87-6.36,3.67-3.71,5.25-9,4.23-14.12-4.84-13.51,6.99-29.27-2.8-40.14L26.11,4.4c-6.1-5.92-15.84-5.78-21.76.31C1.61,7.53.06,11.29,0,15.21c1.86,36.19,15.18,54.65,42.76,86.38Z"/>
</svg>