<?xml version="1.0" encoding="UTF-8"?>
<svg id="Layer_1" data-name="Layer 1" xmlns="http://www.w3.org/2000/svg" viewBox="0 0 192.55 192.57">
  <defs>
    <style>
      .cls-1 {
        fill: #5a1f0e;
      }
    </style>
  </defs>
  <path class="cls-1" d="M102.59,95.65L6.85,191.4c-.79.79-1.81,1.17-2.84,1.17s-2.05-.39-2.84-1.17c-1.56-1.56-1.56-4.11,0-5.67l95.75-95.75c-12.36-15.22-11.47-37.69,2.69-51.86L136.54,1.19c1.56-1.56,4.11-1.56,5.67,0,1.56,1.56,1.56,4.11,0,5.67l-36.93,36.93c-11.02,11.03-11.91,28.43-2.65,40.48l59-59c1.56-1.56,4.11-1.56,5.67,0s1.56,4.11,0,5.67l-59,59c12.05,9.27,29.44,8.38,40.48-2.65l36.93-36.93c1.56-1.56,4.11-1.56,5.67,0,1.56,1.56,1.56,4.11,0,5.67l-36.93,36.93c-7.56,7.56-17.49,11.34-27.42,11.34-8.67,0-17.34-2.88-24.44-8.65h0ZM53.62,110.34c.75.61,1.64.91,2.54.91,1.16,0,2.32-.5,3.11-1.48,1.4-1.71,1.15-4.24-.57-5.65C20.04,72.5,8.03,28.79,8.03,16.45v-2.94c0-3.28,2-4.57,3.19-5.05,1.75-.68,4.56-.7,6.68,1.54l48.96,52.92c1.51,1.63,4.04,1.72,5.67.22,1.63-1.51,1.72-4.04.22-5.67L23.75,4.51C19.71.23,13.62-1.15,8.25,1,3.16,3.03,0,7.82,0,13.52v2.93C0,32.13,13.51,77.53,53.63,110.34h0ZM131.31,120.79c-1.51-1.64-4.04-1.73-5.67-.22-1.63,1.51-1.72,4.04-.22,5.67l8.7,9.41c-14.34-1.83-27.86-5.36-40.32-10.53-2.05-.84-4.39.12-5.25,2.17-.85,2.05.12,4.4,2.17,5.25,15.79,6.55,33.16,10.59,51.64,12.02l43.23,46.73c.79.86,1.87,1.29,2.94,1.29.98,0,1.95-.35,2.72-1.07,1.63-1.51,1.72-4.04.22-5.67l-60.17-65.05h.02Z"/>
</svg>