<?xml version="1.0" encoding="UTF-8"?>
<svg id="Layer_1" xmlns="http://www.w3.org/2000/svg" version="1.1" viewBox="0 0 175.8 191.3">
  <!-- Generator: Adobe Illustrator 29.3.0, SVG Export Plug-In . SVG Version: 2.1.0 Build 146)  -->
  <defs>
    <style>
      .st0 {
        stroke: #000;
        stroke-miterlimit: 10;
        stroke-width: 6px;
      }
    </style>
  </defs>
  <path class="st0" d="M169,108.1l-14.2-51.2C146.4,26.9,118.8,5.8,87.6,5.8S26.6,28.3,19.5,60.3l-13.2,49.7c-2.5,11.1.2,22.6,7.3,31.5,7.1,8.9,17.8,14,29.2,14h8.4c3.5,17.3,18.6,29.9,36.5,29.9s33-12.7,36.5-29.9h8.7c11.8,0,22.7-5.4,29.8-14.8,7.1-9.4,9.4-21.3,6.3-32.7h0ZM87.7,178c-13.8,0-25.6-9.4-28.9-22.5h57.8c-3.4,13-15.1,22.5-28.9,22.5h0ZM156.8,136.2c-5.7,7.5-14.4,11.8-23.8,11.8H42.8c-9.1,0-17.6-4.1-23.3-11.2-5.7-7.1-7.8-16.3-5.9-25.1l13.2-49.7c6.4-28.7,31.4-48.8,60.8-48.8s52.5,18.8,60,45.6l14.2,51.2c2.5,9.1.7,18.6-5,26.1h0Z"/>
</svg>