<?xml version="1.0" encoding="UTF-8"?>
<svg id="Layer_1" xmlns="http://www.w3.org/2000/svg" version="1.1" viewBox="0 0 155.3 186.4">
  <!-- Generator: Adobe Illustrator 29.3.0, SVG Export Plug-In . SVG Version: 2.1.0 Build 146)  -->
  <path d="M57.3,29.8c0-11.5,9.1-20.8,20.8-20.8s20.6,9.2,20.6,20.8-9.1,20.8-20.6,20.8-20.8-9.1-20.8-20.8Z"/>
  <path d="M57.3,93c0-11.5,9.1-20.8,20.8-20.8s20.6,9.2,20.6,20.8-9.1,20.8-20.6,20.8-20.8-9.1-20.8-20.8Z"/>
  <path d="M57.3,156.2c0-11.5,9.1-20.8,20.8-20.8s20.6,9.2,20.6,20.8-9.1,20.8-20.6,20.8-20.8-9.1-20.8-20.8Z"/>
</svg>