<?xml version="1.0" encoding="UTF-8"?>
<svg id="Layer_1" data-name="Layer 1" xmlns="http://www.w3.org/2000/svg" viewBox="0 0 139.51 186.36">
  <defs>
    <style>
      .cls-1 {
        fill: #5a1f0e;
      }
    </style>
  </defs>
  <path class="cls-1" d="M133.32,186.36h-3.27l-19.01-12.27-19.13,12.27h-2.91l-19.06-12.33-19.08,12.33h-3.27l-19.07-12.32-19.07,12.32h-3.27c-3.42-1.18-5.69-3.36-6.18-7.07L.05,32.35C1.69,15.24,15.61,1.59,32.86.53c25.16-1.55,52.38.81,77.65.49,15.73,2.64,27.79,16.12,29,32v145.92c-.36,3.94-2.6,6.15-6.19,7.42ZM131.87,178.37V33.75c0-14.01-13.42-24.76-26.69-25.6-23.06-1.46-47.65,1.14-70.87,0-15.25.95-26.21,12.14-26.7,27.4l.02,142.82c.27.3,1.71-.77,2.08-1.01,5.26-3.38,10.57-7.88,15.89-10.98,2.15-1.25,2.74-1.52,5.1-.36,5.69,2.78,11.74,8.83,17.49,11.93l1.03.4c.41.02.7-.22,1.03-.39,5.54-2.8,11.56-9.05,17.2-11.85,1.04-.52,1.83-1.11,3.11-.72l20.04,13,17.96-12.22c1.68-1.15,3.49-1.17,5.11.08l18.19,12.13Z"/>
  <path class="cls-1" d="M107.41,55.83c2.22,2.23.97,5.97-2.03,6.62l-70.32.16c-4.7-.4-5.67-6.14-1.21-7.74h71.8c.56.27,1.33.53,1.76.97Z"/>
  <path class="cls-1" d="M107.41,79.06c2.22,2.23.97,5.97-2.03,6.62l-70.32.16c-4.7-.4-5.67-6.14-1.21-7.74h71.8c.56.27,1.33.53,1.76.97Z"/>
  <path class="cls-1" d="M84.16,102.29c2.57,2.57.52,6.65-2.97,6.77h-46.14c-5.55-.63-5.37-7.43,0-7.98,14.71,1.03,31.3-1.37,45.79-.01,1.1.1,2.51.42,3.31,1.22Z"/>
</svg>