<?xml version="1.0" encoding="UTF-8"?>
<svg id="Layer_1" data-name="Layer 1" xmlns="http://www.w3.org/2000/svg" viewBox="0 0 187.34 187.34">
  <defs>
    <style>
      .cls-1 {
        fill: #5a1f0e;
      }
    </style>
  </defs>
  <path class="cls-1" d="M51.96,0c.77.46,2.56,1.83,2.56,2.74v12.44l.55.55h77.21l.55-.55V2.74c0-1.04,1.84-2.14,2.56-2.74h2.2c1,.44,2.93,1.97,2.93,3.11v12.62h16.28c14.24,0,30.7,18.17,30.55,32.39v106.84c-1.49,17.12-15.25,30.93-32.38,32.38H32.39c-14.37-1.25-27.09-11.42-31.02-25.33-.57-2.03-.8-4.11-1.37-6.13V47.2c.42-13.86,16.57-31.47,30.55-31.47h16.28V3.11c0-1.14,1.92-2.67,2.93-3.11h2.2ZM8.23,62.57h170.88c.52-.32.5-.73.57-1.26,2.19-18.69-5.62-35.89-25.8-37.91H33.1C13.13,25.76,5.48,42.72,7.67,61.31c.06.53.05.94.57,1.26ZM179.66,70.25H7.68v83.61c0,11.72,11.41,23.95,22.97,25.33,41.92.78,84.11.78,126.03,0,11.55-1.35,22.97-13.63,22.97-25.33v-83.61Z"/>
  <path class="cls-1" d="M84.77,102.58c2.24,2.25.97,6.02-2.05,6.67-1.73.37-7.12.37-8.9.07-4.74-.79-4.73-7.08,0-7.87,2.27-.38,9.33-.49,10.95,1.13Z"/>
  <path class="cls-1" d="M102.58,108.19c-2.24-2.25-.97-6.02,2.05-6.67,1.73-.37,7.12-.37,8.9-.07,4.74.79,4.73,7.08,0,7.87-2.27.38-9.33.49-10.95-1.13Z"/>
  <path class="cls-1" d="M42.72,101.45c2.67-.45,10.63-.79,11.64,2.45,1.97,6.34-7.13,5.94-11,5.51-5.62-.63-5.66-7.12-.64-7.96Z"/>
  <path class="cls-1" d="M136.39,101.45c2.67-.45,10.63-.79,11.64,2.45,1.97,6.34-7.13,5.94-11,5.51-5.62-.63-5.66-7.12-.64-7.96Z"/>
  <path class="cls-1" d="M40,141.72c.34-.39,1.73-1.1,2.28-1.19,1.52-.25,7.93-.23,9.41.07,3.7.74,3.83,6.75.37,7.52-1.29.29-9.17.29-10.46,0-2.65-.59-3.24-4.56-1.61-6.4Z"/>
  <path class="cls-1" d="M133.67,141.72c.34-.39,1.73-1.1,2.28-1.19,1.52-.25,7.93-.23,9.41.07,3.7.74,3.83,6.75.37,7.52-1.29.29-9.17.29-10.46,0-2.65-.59-3.24-4.56-1.61-6.4Z"/>
  <path class="cls-1" d="M71.47,147.35c-2.35-2.08-1.11-6.19,1.99-6.75,1.61-.29,7.78-.32,9.34,0,4.08.83,3.83,6.75.37,7.52-1.5.34-7.75.28-9.44.09-.68-.08-1.75-.41-2.26-.86Z"/>
  <path class="cls-1" d="M115.88,147.35c-.5.45-1.57.78-2.26.86-1.7.19-7.95.25-9.44-.09-3.46-.78-3.71-6.7.37-7.52,1.57-.32,7.73-.29,9.34,0,3.09.56,4.34,4.67,1.99,6.75Z"/>
</svg>