<?xml version="1.0" encoding="UTF-8"?>
<svg id="Layer_1" data-name="Layer 1" xmlns="http://www.w3.org/2000/svg" viewBox="0 0 187.87 187.85">
  <defs>
    <style>
      .cls-1 {
        fill: #391202;
      }
    </style>
  </defs>
  <path class="cls-1" d="M7.71,70.44H0v85.87c.58,2.02.8,4.11,1.38,6.14,3.93,13.96,16.69,24.14,31.1,25.39h122.9c17.2-1.45,30.99-15.31,32.48-32.47v-84.95H7.71ZM136.77,101.73c2.67-.45,10.67-.8,11.67,2.45,1.98,6.36-7.14,5.96-11.02,5.53-5.65-.64-5.69-7.14-.65-7.98ZM134.05,142.12c.35-.4,1.75-1.11,2.29-1.2,1.53-.25,7.96-.24,9.43.07,3.71.75,3.85,6.76.38,7.53-1.29.29-9.2.29-10.49,0-2.65-.58-3.25-4.56-1.62-6.4ZM116.21,147.75c-.51.45-1.58.78-2.27.85-1.69.2-7.96.25-9.47-.09-3.47-.76-3.71-6.71.38-7.54,1.56-.31,7.74-.27,9.36.02,3.11.55,4.36,4.67,2,6.76ZM104.92,101.8c1.73-.38,7.14-.38,8.93-.07,4.74.8,4.74,7.11,0,7.89-2.27.38-9.36.49-10.98-1.13-2.25-2.25-.98-6.03,2.05-6.69ZM74.02,101.73c2.29-.38,9.36-.49,10.98,1.13,2.25,2.25.98,6.04-2.05,6.69-1.73.38-7.14.38-8.93.07-4.74-.78-4.74-7.09,0-7.89ZM40.12,142.12c.35-.4,1.73-1.11,2.29-1.2,1.51-.25,7.94-.24,9.43.07,3.71.75,3.84,6.76.36,7.53-1.29.29-9.18.29-10.47,0-2.65-.58-3.25-4.56-1.62-6.4ZM73.66,140.99c1.62-.29,7.8-.33,9.38-.02,4.09.84,3.84,6.78.36,7.54-1.51.35-7.76.29-9.47.09-.69-.07-1.76-.4-2.25-.85-2.36-2.09-1.13-6.22,1.98-6.76ZM42.85,101.73c2.67-.45,10.65-.8,11.67,2.45,1.96,6.36-7.16,5.96-11.03,5.53-5.63-.64-5.67-7.14-.64-7.98Z"/>
  <path class="cls-1" d="M157.24,15.78h-16.34V3.11c0-1.15-1.93-2.67-2.93-3.11h-2.2c-.73.6-2.58,1.69-2.58,2.74v12.47l-.55.56H55.23l-.54-.56V2.74c0-.91-1.8-2.29-2.56-2.74h-2.22c-1,.44-2.93,1.96-2.93,3.11v12.67h-16.32C16.63,15.78.44,33.43,0,47.34v15.4h187.87v-14.49c.15-14.25-16.36-32.47-30.63-32.47Z"/>
</svg>