<?xml version="1.0" encoding="UTF-8"?>
<svg id="Layer_1" xmlns="http://www.w3.org/2000/svg" version="1.1" viewBox="0 0 155.3 186.4">
  <!-- Generator: Adobe Illustrator 29.3.0, SVG Export Plug-In . SVG Version: 2.1.0 Build 146)  -->
  <defs>
    <style>
      .st0 {
        stroke: #000;
        stroke-miterlimit: 10;
        stroke-width: 6px;
      }
    </style>
  </defs>
  <path class="st0" d="M77.7,181.3c-8.9,0-18.5-4.7-24.8-12.3C21.5,131.7,4.2,99.6,4.2,78.5,4.2,38,37.2,5.1,77.7,5.1s73.4,32.9,73.4,73.4-17.3,53.2-48.6,90.5c-6.4,7.6-15.9,12.3-24.8,12.3ZM77.7,12.4C41.2,12.4,11.6,42.1,11.6,78.5s17.1,50.3,46.9,85.7c4.9,5.9,12.5,9.7,19.2,9.7s14.3-3.8,19.2-9.7c29.8-35.4,46.9-66.7,46.9-85.7,0-36.4-29.6-66.1-66.1-66.1h0Z"/>
  <path class="st0" d="M77.7,107.9c-16.2,0-29.4-13.2-29.4-29.4s13.2-29.4,29.4-29.4,29.4,13.2,29.4,29.4-13.2,29.4-29.4,29.4ZM77.7,56.5c-12.1,0-22,9.9-22,22s9.9,22,22,22,22-9.9,22-22-9.9-22-22-22Z"/>
</svg>