<?xml version="1.0" encoding="UTF-8"?>
<svg id="Layer_1" xmlns="http://www.w3.org/2000/svg" version="1.1" xmlns:serif="http://www.serif.com/" xmlns:xlink="http://www.w3.org/1999/xlink" viewBox="0 0 456 456">
  <!-- Generator: Adobe Illustrator 29.3.0, SVG Export Plug-In . SVG Version: 2.1.0 Build 146)  -->
  <defs>
    <style>
      .st0 {
        fill: #702808;
      }

      .st1 {
        fill: #f5d4a4;
      }

      .st2 {
        fill: #391202;
      }

      .st3 {
        fill: #a44314;
      }

      .st4 {
        fill: #ffae63;
      }

      .st5 {
        fill: #c01317;
      }

      .st6 {
        fill: #ffd08c;
      }

      .st7 {
        fill: #fef7ce;
      }
    </style>
  </defs>
  <path class="st2" d="M315.1,230.5c11.9.4,21.8,15.9,15.2,34.1l-5.3,10.8c.6,2.5,1.1,5.2,1.2,8.1.8,13.3-8.3,31.7-17.3,46l3.4,17.1c0,.4-4,20.4-18,37.8,9.1,4.7,11.2,14.2,30,13.5,3.6-.1,5.9,3.7,4.2,6.8-7.4,13.2-17.1,22.4-35.4,23.1-11.5.4-22.8-4.3-30.4-13.8-9.9,20.3-34.4,21.6-54.3,13.7-3.2-1.3-4-5.4-1.4-7.7,8-7.1,11.3-16.5,16.7-23.8-26.1-8.9-51.9-22.9-63.5-50l-1.1-2.5,9.8-22.1c-1.3-2-2.4-4.1-3.4-6.2-8.8,3-17.5-2.8-21-11.8-3.4-8.8-8.6-16-10.7-23.5-3.5-12.6.2-23.3,6.8-29l-2.3-10c-79.4,17-107.4-67.4-51.8-121.2-3-19.3,3.1-38.8,14.7-55.2,24.1-34.2,70.8-54.2,107.8-34.6,67.1-27.8,142.3,7.9,137.4,66,37.3,31.6,15.8,103.4-32.9,111.5,1.6,9.6,2.1,12.3,1.5,22.8h0Z"/>
  <path class="st0" d="M170.9,231.9c-6.9,4.7-12.4,9.8-15.8,15.1,3,.5,6,1.9,8.8,4.2l-.3-3.6,8-5.5c-.1-2.6-.4-6.3-.8-10.2h.1Z"/>
  <path class="st1" d="M149.7,233.5c29.8-32.6,113.2-51.4,149.6-34.8l-5.6-32.5c-11.2-6-23.4-10.1-36-12.5-24.3,19-56.2,23.7-86.7,15.9l-1.8,1.1h0c-12.8,8.2-29.6,19-26.7,31.8l7.1,30.9h0Z"/>
  <path class="st7" d="M206.6,201.9c33.5-10.4,71.2-12.9,92.7-3.1l-4.1-24.2c-55.8-7.1-79.1,9.3-88.5,27.3h0Z"/>
  <path class="st4" d="M277.1,333.8c4.4.3,10.3-1.2,17.4-5.3,8.2-12,19.8-32.5,19.2-44.3-.8-14.7-12.8-25.1-11.8-44.3.4-7.4,1.4-15.4.5-23-7.7-13.3-41.1-12.4-59.1-10-20.6,2.8-42.7,9.1-60.5,18.1,1.5,9.6,1.7,20.4,1.8,23.7l-7.7,5.3,1.5,21.7c.4,5.2-7,6.8-8.9,2-6-15.4-19.3-23.3-23.2-12.8-4.1,11.3,5,20.7,10.2,34.2,1.3,3.2,6.9,7.1,10.5,3,2.2-2.5,6.8-1.5,7.5,1.9,7.6,34.7,74.6,48.6,64,18,14.7.4,17.3.2,32.2-3.7-1.2,6.6-1.9,14.9,6.4,15.6h0Z"/>
  <path class="st6" d="M277.1,333.8c5.2.4,13.3-1.9,17.4-5.3,8.2-12,19.8-32.5,19.2-44.3-.8-14.7-12.8-25.1-11.8-44.3.4-7.4,1.4-15.4.5-23-7.7-13.3-41.1-12.4-59.1-10-14.4,1.9-29.6,5.6-43.5,10.8-11.4,23.3-36.2,88.6,24.3,121.1,11.1,0,18.6-5.1,14.5-16.9,14.7.4,17.3.2,32.2-3.7-1.2,6.6-1.9,14.9,6.4,15.6h-.1Z"/>
  <path class="st0" d="M290.1,344.4c-12.9,4.4-27.5,2.1-31.9-11l-5.9.6c-1.4,7.5-7.6,18.1-31.8,17.1,6.5,11.3,31,17.9,42,32.7,16.4-10.4,23.5-22.5,27.6-39.4h0Z"/>
  <path class="st3" d="M290.1,344.4c-12.9,4.4-27.5,2.1-31.9-11l-5.9.6c-.6,3.1-1.9,6.6-5,9.7-1.4,10.6.3,29,28.3,29.3,7.5-8,11.6-17.2,14.4-28.7h.1Z"/>
  <path class="st5" d="M242.3,388.7l.8-5.5c-24.6-8.7-52.3-22.3-67.5-45.1l-2.5,5.7c12.6,26,43,37.6,69.2,44.9h0Z"/>
  <path class="st5" d="M237.3,400.4c-4.7,4.1-9.5,13.8-12.5,19,11.5,2,20.8-1.7,26.1-10.4-3.2.6-6,1.1-8.8,2.5-3.6,1.8-7.4-2.3-5.3-5.8,1.2-1.9,2.3-3.5,3.1-4.6-.9-.2-1.7-.5-2.6-.7h0Z"/>
  <path class="st5" d="M282.1,396.4c2.3,1.2,4.9,2.6,7.7,4.5,4,2.7.7,9.3-3.9,7.4-3.9-1.6-8.1-2.1-11-2.4-.4.4-.8.9-1.3,1.2,8.8,10.1,24.2,10.3,34.6,2.4-8.7-4.2-15.6-13.5-23.8-14.9-.7.6-1.4,1.2-2.2,1.7h-.1Z"/>
  <path class="st4" d="M318.8,258.9c2.5-7.9-.8-16.1-4.3-15.6.3,5.5,2.2,10.5,4.3,15.6Z"/>
  <path class="st1" d="M285.1,119.3c-4.5,9.2-9.9,17.1-16,23.9,10.3,2.6,19.6,6.2,29.1,11.1,2.8-3.1,6.6-7.8,9.3-12.9,2.6-4.9,10.1-1.8,8.4,3.5-2.6,8.4-7.2,15.4-9.8,18.9l5.4,31.4c35.6-6,53.3-57.1,32-84-2.2,4.8-9.6,2.5-8.7-2.7,2.8-15.6-1.1-31-7.4-41.7-16.7-28.6-62.7-42-105.5-28,3.5,3,6.8,6.4,9.9,10.2,3.7,4.5-2.8,10.5-6.9,6.2-11.1-11.5-27.3-18-39.8-19.6-31.8-4.3-66.4,18.7-80.3,48.1-6.9,14.6-9.7,35-3.7,51.1,2.1,5.5-6.2,8.8-8.7,3.6-.7-1.4-1.3-2.9-1.9-4.3-39.5,44.5-19.7,108.3,45,94.6l-4.6-20.1c-5.5-2.4-15.8-8.3-22.1-20.4-2.5-4.9,4.2-9.2,7.6-5,3.9,4.8,9.1,8.4,13.4,10.8,2.5-12.6,14.2-22,25.6-29.6-7.1-2.9-14-6.4-20.7-10.6-5-3.2-.5-10.9,4.7-7.9,46.6,26.5,110.4,16,137.5-31,2.9-5.1,10.7-.9,8.1,4.3h.1Z"/>
  <path class="st7" d="M285.1,119.3c-.4.9-.8,1.7-1.3,2.5,2.3,8.2,8.1,22.4,20.9,24.2,1-1.5,2-3,2.8-4.6,2.6-4.9,10.1-1.8,8.4,3.5-1.5,4.9-3.7,9.3-5.7,12.8,2.8,6.1,10.7,18.3,29.8,19.6,14.6-18.9,17.9-48,3.6-66-2.2,4.8-9.6,2.5-8.7-2.7,2.8-15.6-1.1-31-7.4-41.7-16.7-28.6-62.7-42-105.5-28,3.5,3,6.8,6.4,9.9,10.2,3.7,4.5-2.8,10.5-6.9,6.2-11.1-11.5-27.3-18-39.8-19.6-25.9-3.5-53.7,11.1-70.6,32.5,10.8,39.6,43.7,87.4,141.1,71.4,8.4-6.6,15.6-14.8,21.2-24.6,2.9-5.1,10.7-.9,8.1,4.3h.1Z"/>
  <path class="st2" d="M265.3,313.6c-6.8,5.3-16.7,5.5-24.6,1.8-17,7.7-39.4,2.4-48.8-19.8-2.3-5.5,1.8-11.3,7.1-9.8,16.4,4.4,35-28.9,53.4-10.8,3-.3,11-1.7,9.9-4.7-1.5-4.4-11.7-9.2-14.8-27.5-.8-4.7,6.2-7.3,8.1-2.5,2,5.1,5.9,12.3,12.5,16.8,4.5,3,9,8.2,7,14.4,10.9,3.2,18.5,16.7,28.3,10.6,3.9-2.5,8.3,3.1,7.1,6.4-8.4,22.6-28.3,32.4-45.3,25.2h0Z"/>
  <path class="st2" d="M229.5,261.6c-9.7-6.4-23.3-4.5-34.2,3.1-4.9,3.4-8.9-4.6-5.3-7.7,14.7-12.7,29.4-18.5,45.1-3.4,3.3,3.1-.8,11.2-5.7,8h0Z"/>
  <path class="st2" d="M224,233c-7.4-.9-20.4-1.6-32.3,2.8-5.1,1.8-7.4-5.3-3.3-7.9,10.1-6.4,22.7-9.6,34.6-9.3,6.6.2,8.9,15.5,1.1,14.5h-.1Z"/>
  <path class="st2" d="M273.3,254.7c6.7-5.5,15.8-3.9,23.3,2.8,5.1,4.6,7.3-3.9,3.9-7.9-10.1-11.6-20.2-16.8-30.9-3.6-3.8,4.6-1,12.6,3.8,8.7h0Z"/>
  <path class="st2" d="M274.3,228.6c4.8-1.3,13.4-2.7,21.7.5,3.5,1.3,4.5-5.3,1.5-7.4-7.2-5.2-15.9-7.8-23.7-6.4-6.5,1.2-7.1,15.3.5,13.3h0Z"/>
  <path class="st3" d="M265.8,284.3c-5.6,2.7-11.3,3.2-18.9,3.7l-2.1-2.5c-7.3-9-22.1,9.7-36.1,13.3,11.2,12.2,34.2,7.8,41.1-5.5,1.5-2.9,8.3-3.4,10.1-.6,8.4,12.9,22.3,14.1,32.1,2.9-10.3-2.5-17-14.8-26.3-11.2h0Z"/>
  <path class="st2" d="M158.5,270.5c8.3,2.8,9.2,11.6,5.8,19.8-.4,1-1.2,1.7-2.3,1.9h0c-1.1.2-2,0-2.8-.8s-1.1-1.8-.9-2.8c.9-4.7,0-9.6-3.1-12.3-1-.9-1.3-2.3-.8-3.6l.2-.5c.7-1.5,2.3-2.2,3.8-1.7h.1Z"/>
</svg>